<svg xmlns="http://www.w3.org/2000/svg" xmlns:xlink="http://www.w3.org/1999/xlink" width="817.77" height="848.207" viewBox="0 0 817.77 848.207">
  <defs>
    <linearGradient id="linear-gradient" x1="0.5" x2="0.5" y2="1" gradientUnits="objectBoundingBox">
      <stop offset="0" stop-color="#3babf6"/>
      <stop offset="1" stop-color="#2d6dd3"/>
    </linearGradient>
  </defs>
  <g id="Group_5738" data-name="Group 5738" transform="translate(-107.412 -1472.679)">
    <path id="Path_547" data-name="Path 547" d="M316.864-38.434c55.463,0,95.862,75.464,87.04,108.485C385.753,138,248.824,204.712,248.824,309c0,154.5,230.832,309,60.176,309S-138.522,491.737-138.522,321.081,146.208-38.434,316.864-38.434Z" transform="translate(243.744 1731.081) rotate(-34)" fill="#fbfbfb"/>
    <g id="Untitled-1" transform="translate(231.361 1605.754)">
      <g id="Group_5737" data-name="Group 5737" transform="translate(17.639 16.246)">
        <g id="Group_5660" data-name="Group 5660" transform="translate(28.021)">
          <path id="Path_439" data-name="Path 439" d="M758.28,332.7a4.3,4.3,0,1,1-4.294-4.3A4.3,4.3,0,0,1,758.28,332.7Zm-2.128,0a2.167,2.167,0,1,0-2.165,2.166A2.168,2.168,0,0,0,756.152,332.7Z" transform="translate(-300.006 -124.705)" fill="#91a6cf"/>
          <g id="Group_5652" data-name="Group 5652" transform="translate(492.595 50.718)">
            <path id="Path_440" data-name="Path 440" d="M859.99,93.974H835.662a1.064,1.064,0,1,0,0,2.128h24.327a1.064,1.064,0,1,0,0-2.128Z" transform="translate(-822.101 -93.97)" fill="#91a6cf"/>
            <path id="Path_441" data-name="Path 441" d="M821.266,93.968h-4.755a1.064,1.064,0,0,0,0,2.128h4.755a1.064,1.064,0,0,0,0-2.128Z" transform="translate(-815.448 -93.968)" fill="#91a6cf"/>
            <path id="Path_442" data-name="Path 442" d="M841.909,106.4a1.064,1.064,0,0,1-1.064,1.064H837.8a1.064,1.064,0,1,1,0-2.129h3.043A1.065,1.065,0,0,1,841.909,106.4Zm-8.365,0a1.064,1.064,0,0,1-1.064,1.064h-5.322a1.064,1.064,0,0,1,0-2.129h5.322A1.065,1.065,0,0,1,833.543,106.4Zm-10.643,0a1.064,1.064,0,0,1-1.064,1.064h-5.322a1.064,1.064,0,0,1,0-2.129h5.322A1.064,1.064,0,0,1,822.9,106.4Z" transform="translate(-815.449 -97.916)" fill="#91a6cf"/>
          </g>
          <g id="Group_5653" data-name="Group 5653" transform="translate(129.45 114.281)">
            <path id="Path_443" data-name="Path 443" d="M268.068,203.007A1.065,1.065,0,0,0,267,204.071v2.469a1.065,1.065,0,0,0,2.129,0v-2.469A1.064,1.064,0,0,0,268.068,203.007Z" transform="translate(-261.75 -195.416)" fill="#91a6cf"/>
            <path id="Path_444" data-name="Path 444" d="M262.486,199.212h-2.47a1.064,1.064,0,0,0,0,2.128h2.47a1.064,1.064,0,0,0,0-2.128Z" transform="translate(-258.952 -194.097)" fill="#91a6cf"/>
            <path id="Path_445" data-name="Path 445" d="M268.068,191.374A1.065,1.065,0,0,0,267,192.438v2.467a1.065,1.065,0,0,0,2.129,0v-2.467A1.064,1.064,0,0,0,268.068,191.374Z" transform="translate(-261.75 -191.374)" fill="#91a6cf"/>
            <path id="Path_446" data-name="Path 446" d="M274.807,198.952h-2.47a1.064,1.064,0,0,0,0,2.129h2.47a1.064,1.064,0,1,0,0-2.129Z" transform="translate(-263.233 -194.007)" fill="#91a6cf"/>
          </g>
          <g id="Group_5654" data-name="Group 5654" transform="translate(397.159 45.278)">
            <path id="Path_447" data-name="Path 447" d="M678.316,97.263a1.065,1.065,0,0,0-1.064,1.065V100.8a1.064,1.064,0,1,0,2.128,0V98.328A1.065,1.065,0,0,0,678.316,97.263Z" transform="translate(-671.997 -89.672)" fill="#91a6cf"/>
            <path id="Path_448" data-name="Path 448" d="M672.732,93.469h-2.468a1.064,1.064,0,1,0,0,2.128h2.468a1.064,1.064,0,1,0,0-2.128Z" transform="translate(-669.199 -88.354)" fill="#91a6cf"/>
            <path id="Path_449" data-name="Path 449" d="M678.316,85.631a1.064,1.064,0,0,0-1.064,1.064v2.467a1.064,1.064,0,1,0,2.128,0V86.7A1.064,1.064,0,0,0,678.316,85.631Z" transform="translate(-671.997 -85.631)" fill="#91a6cf"/>
            <path id="Path_450" data-name="Path 450" d="M685.054,93.208h-2.469a1.064,1.064,0,1,0,0,2.129h2.469a1.064,1.064,0,0,0,0-2.129Z" transform="translate(-673.48 -88.264)" fill="#91a6cf"/>
          </g>
          <g id="Group_5655" data-name="Group 5655" transform="translate(266.36)">
            <path id="Path_451" data-name="Path 451" d="M513.3,16.252H488.974a1.064,1.064,0,0,0,0,2.128H513.3a1.064,1.064,0,1,0,0-2.128Z" transform="translate(-475.413 -16.248)" fill="#91a6cf"/>
            <path id="Path_452" data-name="Path 452" d="M474.577,16.246h-4.754a1.064,1.064,0,1,0,0,2.128h4.754a1.064,1.064,0,1,0,0-2.128Z" transform="translate(-468.759 -16.246)" fill="#91a6cf"/>
            <path id="Path_453" data-name="Path 453" d="M495.22,28.675a1.064,1.064,0,0,1-1.064,1.064h-3.043a1.064,1.064,0,1,1,0-2.129h3.043A1.066,1.066,0,0,1,495.22,28.675Zm-8.365,0a1.064,1.064,0,0,1-1.064,1.064h-5.322a1.064,1.064,0,1,1,0-2.129h5.322A1.065,1.065,0,0,1,486.855,28.675Zm-10.643,0a1.064,1.064,0,0,1-1.064,1.064h-5.321a1.064,1.064,0,1,1,0-2.129h5.321A1.065,1.065,0,0,1,476.212,28.675Z" transform="translate(-468.76 -20.194)" fill="#91a6cf"/>
          </g>
          <circle id="Ellipse_16" data-name="Ellipse 16" cx="3.758" cy="3.758" r="3.758" transform="translate(565.758 107.751)" fill="#91a6cf"/>
          <g id="Group_5656" data-name="Group 5656" transform="translate(59.513 293.524)">
            <path id="Path_454" data-name="Path 454" d="M171.993,468.18h24.329a1.064,1.064,0,1,0,0-2.128H171.993a1.064,1.064,0,1,0,0,2.128Z" transform="translate(-158.433 -466.052)" fill="#91a6cf"/>
            <path id="Path_455" data-name="Path 455" d="M152.843,468.186H157.6a1.064,1.064,0,0,0,0-2.129h-4.755a1.064,1.064,0,0,0,0,2.129Z" transform="translate(-151.779 -466.054)" fill="#91a6cf"/>
          </g>
          <path id="Path_456" data-name="Path 456" d="M871.346,495.837s1.453,10.367-10.658,10.128c0,0,10.4.106,10.129,9.835,0,0,.935-7.653,10.481-9.364C881.3,506.436,873.231,508.288,871.346,495.837Z" transform="translate(-338.572 -182.877)" fill="#91a6cf"/>
          <path id="Path_457" data-name="Path 457" d="M959.944,271.75s1.453,10.367-10.658,10.128c0,0,10.4.106,10.129,9.834,0,0,.938-7.652,10.481-9.362C969.9,282.35,961.832,284.2,959.944,271.75Z" transform="translate(-369.355 -105.019)" fill="#91a6cf"/>
          <path id="Path_458" data-name="Path 458" d="M371.36,56.655s1.453,10.367-10.656,10.128c0,0,10.4.106,10.129,9.834,0,0,.935-7.653,10.481-9.362C381.314,67.254,373.247,69.105,371.36,56.655Z" transform="translate(-164.856 -30.286)" fill="#91a6cf"/>
          <path id="Path_459" data-name="Path 459" d="M211.609,100.531s1.453,10.367-10.657,10.128c0,0,10.4.107,10.129,9.835,0,0,.935-7.653,10.481-9.363C221.563,111.13,213.5,112.981,211.609,100.531Z" transform="translate(-109.351 -45.53)" fill="#91a6cf"/>
          <path id="Path_460" data-name="Path 460" d="M312.134,32.627s.506,3.613-3.714,3.53c0,0,3.626.037,3.529,3.429a4.115,4.115,0,0,1,3.653-3.265S312.791,36.966,312.134,32.627Z" transform="translate(-146.69 -21.937)" fill="#91a6cf"/>
          <path id="Path_461" data-name="Path 461" d="M602.738,223.535s.506,3.613-3.714,3.531c0,0,3.626.037,3.529,3.428a4.115,4.115,0,0,1,3.653-3.264S603.395,227.874,602.738,223.535Z" transform="translate(-247.658 -88.267)" fill="#91a6cf"/>
          <path id="Path_462" data-name="Path 462" d="M64.293,318.184s.506,3.613-3.714,3.53c0,0,3.626.037,3.529,3.429a4.114,4.114,0,0,1,3.653-3.264S64.949,322.523,64.293,318.184Z" transform="translate(-60.579 -121.152)" fill="#91a6cf"/>
          <path id="Path_463" data-name="Path 463" d="M547.484,467.471s.505,3.613-3.715,3.53c0,0,3.627.037,3.53,3.428a4.114,4.114,0,0,1,3.654-3.263S548.141,471.811,547.484,467.471Z" transform="translate(-228.46 -173.021)" fill="#91a6cf"/>
          <g id="Group_5657" data-name="Group 5657" transform="translate(146.44 216.914)">
            <path id="Path_464" data-name="Path 464" d="M314.092,367.947H290.47a5.48,5.48,0,0,1-.175-10.958A8.481,8.481,0,0,1,305.88,352.5a6.153,6.153,0,0,1,6.832,4.484h1.381a5.48,5.48,0,1,1,0,10.961Zm-23.623-9.339a3.859,3.859,0,1,0,0,7.717h23.623a3.859,3.859,0,0,0,0-7.717h-2.726l-.109-.684a4.532,4.532,0,0,0-5.59-3.733l-.6.144-.3-.536a6.86,6.86,0,0,0-12.855,3.335c0,.2.014.4.031.594l.075.881Z" transform="translate(-284.989 -348.652)" fill="#91a6cf"/>
          </g>
          <g id="Group_5658" data-name="Group 5658" transform="translate(567.87 16.995)">
            <path id="Path_465" data-name="Path 465" d="M959.905,61.584H936.283a5.48,5.48,0,0,1-.176-10.958,8.482,8.482,0,0,1,15.586-4.487,6.155,6.155,0,0,1,6.832,4.484h1.381a5.48,5.48,0,1,1,0,10.96Zm-23.623-9.339a3.859,3.859,0,0,0,0,7.718h23.623a3.859,3.859,0,0,0,0-7.718h-2.728l-.107-.683a4.535,4.535,0,0,0-5.592-3.733l-.6.142-.3-.536a6.861,6.861,0,0,0-12.857,3.336c0,.2.015.4.031.594l.076.88h-1.55Z" transform="translate(-930.802 -42.289)" fill="#91a6cf"/>
          </g>
          <g id="Group_5659" data-name="Group 5659" transform="translate(202.091 77.309)">
            <path id="Path_466" data-name="Path 466" d="M399.373,154.012H375.751a5.48,5.48,0,0,1-.175-10.958,8.481,8.481,0,0,1,15.585-4.487,6.154,6.154,0,0,1,6.832,4.485h1.381a5.48,5.48,0,1,1,0,10.96Zm-23.623-9.339a3.859,3.859,0,1,0,0,7.718h23.623a3.859,3.859,0,0,0,0-7.718h-2.726l-.109-.683a4.534,4.534,0,0,0-5.59-3.733l-.6.142-.3-.535A6.86,6.86,0,0,0,377.2,143.2c0,.2.013.4.031.594l.075.88Z" transform="translate(-370.27 -134.717)" fill="#91a6cf"/>
          </g>
        </g>
        <g id="Group_5691" data-name="Group 5691" transform="translate(198.061 193.664)">
          <g id="Group_5662" data-name="Group 5662" transform="translate(95.696 109.885)">
            <path id="Path_467" data-name="Path 467" d="M507.246,579.9h0a19.093,19.093,0,0,1-23.57-13.173l-15.148-53.538A19.09,19.09,0,0,1,481.7,489.623h0A19.092,19.092,0,0,1,505.27,502.8l15.149,53.538A19.093,19.093,0,0,1,507.246,579.9Z" transform="translate(-467.802 -484.015)" fill="#92c6df"/>
            <path id="Path_468" data-name="Path 468" d="M492.068,589.092h0a19.093,19.093,0,0,1-.262-27l38.96-39.722a19.093,19.093,0,0,1,27-.262h0a19.094,19.094,0,0,1,.262,27l-38.96,39.723A19.093,19.093,0,0,1,492.068,589.092Z" transform="translate(-474.244 -493.656)" fill="#92c6df"/>
            <g id="Group_5661" data-name="Group 5661" transform="translate(63.293)">
              <circle id="Ellipse_17" data-name="Ellipse 17" cx="16.728" cy="16.728" r="16.728" transform="translate(1.407 11.694)" fill="#f58283"/>
              <path id="Path_469" data-name="Path 469" d="M571.726,513.636h0a4.36,4.36,0,0,1-5.309-3.134l-1.483-5.757a4.358,4.358,0,0,1,3.134-5.308h0a4.358,4.358,0,0,1,5.309,3.134l1.482,5.756A4.359,4.359,0,0,1,571.726,513.636Z" transform="translate(-564.794 -487.628)" fill="#f58283"/>
              <path id="Path_470" data-name="Path 470" d="M593.322,487.6l-5.928,15.006a4.524,4.524,0,0,1-5.87,2.547h0a4.526,4.526,0,0,1-2.547-5.872l5.927-15.006a4.526,4.526,0,0,1,5.872-2.546h0A4.525,4.525,0,0,1,593.322,487.6Z" transform="translate(-569.612 -481.415)" fill="#f58283"/>
              <path id="Path_471" data-name="Path 471" d="M608.755,492.24,601.6,506.7a4.524,4.524,0,0,1-6.062,2.049h0a4.526,4.526,0,0,1-2.048-6.064l7.158-14.459a4.526,4.526,0,0,1,6.062-2.048h0A4.526,4.526,0,0,1,608.755,492.24Z" transform="translate(-574.6 -482.906)" fill="#f58283"/>
              <path id="Path_472" data-name="Path 472" d="M619.422,504.154l-10,12.663a4.523,4.523,0,0,1-6.355.748h0a4.524,4.524,0,0,1-.748-6.355l10-12.664a4.524,4.524,0,0,1,6.355-.748h0A4.526,4.526,0,0,1,619.422,504.154Z" transform="translate(-577.495 -486.769)" fill="#f58283"/>
            </g>
          </g>
          <g id="Group_5682" data-name="Group 5682" transform="translate(61.879)">
            <g id="Group_5663" data-name="Group 5663" transform="translate(17.845 52.552)">
              <path id="Path_473" data-name="Path 473" d="M457.412,438.374l-6.491-.256a7.9,7.9,0,0,1-7.587-8.208l1.357-34.5,22.287.876-1.357,34.5A7.9,7.9,0,0,1,457.412,438.374Z" transform="translate(-443.328 -394.202)" fill="#f58283"/>
              <path id="Path_474" data-name="Path 474" d="M467.513,394.432l-22.287-.876-.345,8.753c-.337,8.578,6.646,16.107,15.208,15.484a15.275,15.275,0,0,0,1.6-.2,15.643,15.643,0,0,0,4.984-1.823Z" transform="translate(-443.863 -393.556)" fill="#d05e79"/>
            </g>
            <g id="Group_5681" data-name="Group 5681">
              <path id="Path_475" data-name="Path 475" d="M468.666,336.782c5.757,10.468-.906,23.905-14.884,30.012s-29.975,2.573-35.732-7.894.907-23.9,14.884-30.012S462.91,326.316,468.666,336.782Z" transform="translate(-415.981 -317.495)" fill="#1c2b67"/>
              <path id="Path_476" data-name="Path 476" d="M494.841,342.344c3.82,8.216-3.6,17.943-16.58,21.725s-26.592.189-30.412-8.028,3.6-17.944,16.58-21.726S491.021,334.128,494.841,342.344Z" transform="translate(-426.705 -319.898)" fill="#1c2b67"/>
              <path id="Path_477" data-name="Path 477" d="M468.027,314.959c7.687,4.8,6.781,17-2.022,27.255s-22.173,14.681-29.86,9.885-6.782-17,2.023-27.254S460.339,310.162,468.027,314.959Z" transform="translate(-421.173 -313.023)" fill="#1c2b67"/>
              <path id="Path_478" data-name="Path 478" d="M478.676,371.039c2.193,12.293-4.24,23.727-14.37,25.534h0c-10.128,1.808-20.118-6.695-22.312-18.989l-1.726-9.675c-2.195-12.293,4.238-23.727,14.366-25.535h0c10.13-1.808,20.122,6.695,22.315,18.989Z" transform="translate(-424.27 -323.137)" fill="#f58283"/>
              <path id="Path_479" data-name="Path 479" d="M451.784,338.86c-5.6-5.07-15.352-2.618-21.778,5.479s-7.093,18.77-1.49,23.841,15.352,2.619,21.777-5.478S457.387,343.931,451.784,338.86Z" transform="translate(-419.015 -321.083)" fill="#1c2b67"/>
              <g id="Group_5680" data-name="Group 5680" transform="translate(5.645 37.252)">
                <g id="Group_5674" data-name="Group 5674" transform="translate(20.734)">
                  <g id="Group_5667" data-name="Group 5667" transform="translate(9.066 4.938)">
                    <g id="Group_5664" data-name="Group 5664" transform="translate(0 0.006)">
                      <path id="Path_480" data-name="Path 480" d="M471.317,380.66a1.015,1.015,0,0,1-.583-1.85,6.592,6.592,0,0,1,6.792-.289,1.019,1.019,0,0,1-1.026,1.761,4.52,4.52,0,0,0-4.608.2A1.014,1.014,0,0,1,471.317,380.66Z" transform="translate(-470.298 -377.686)" fill="#86294e"/>
                    </g>
                    <g id="Group_5665" data-name="Group 5665" transform="translate(11.879)">
                      <path id="Path_481" data-name="Path 481" d="M495.216,380.661a1,1,0,0,1-.575-.179h0a4.522,4.522,0,0,0-4.609-.2,1.019,1.019,0,0,1-1.025-1.761,6.552,6.552,0,0,1,6.791.289,1.017,1.017,0,0,1-.582,1.853Z" transform="translate(-488.501 -377.677)" fill="#86294e"/>
                    </g>
                    <g id="Group_5666" data-name="Group 5666" transform="translate(3.491 4.616)">
                      <circle id="Ellipse_18" data-name="Ellipse 18" cx="1.062" cy="1.062" r="1.062" fill="#86294e"/>
                    </g>
                    <circle id="Ellipse_19" data-name="Ellipse 19" cx="1.062" cy="1.062" r="1.062" transform="translate(13.682 5.017)" fill="#86294e"/>
                  </g>
                  <g id="Group_5671" data-name="Group 5671">
                    <g id="Group_5668" data-name="Group 5668" transform="translate(18.984 1.735)">
                      <path id="Path_482" data-name="Path 482" d="M493.863,389.486c-.112,0-.225,0-.339-.008a8.238,8.238,0,1,1,.339.008Zm-.018-15.3a6.946,6.946,0,0,0-.265,13.886,7.057,7.057,0,0,0,4.989-1.84,6.945,6.945,0,0,0-4.441-12.041C494.033,374.184,493.939,374.182,493.845,374.182Z" transform="translate(-485.496 -372.769)" fill="#f6d2d4"/>
                    </g>
                    <g id="Group_5669" data-name="Group 5669">
                      <path id="Path_483" data-name="Path 483" d="M465.8,388.883c-.126,0-.253,0-.378-.008a9.384,9.384,0,0,1-6-16.268,9.387,9.387,0,0,1,13.263.519,9.387,9.387,0,0,1-6.882,15.757Zm-.02-17.182A7.8,7.8,0,0,0,458,379.193h0a7.809,7.809,0,0,0,7.486,8.1,7.8,7.8,0,1,0,.612-15.584C465.991,371.7,465.886,371.7,465.78,371.7Z" transform="translate(-456.405 -370.11)" fill="#f6d2d4"/>
                    </g>
                    <g id="Group_5670" data-name="Group 5670" transform="translate(16.453 9.399)">
                      <path id="Path_484" data-name="Path 484" d="M482.316,385.968l3.452.136a.727.727,0,0,0,.755-.7h0a.727.727,0,0,0-.7-.756l-3.453-.135a.727.727,0,0,0-.755.7h0A.726.726,0,0,0,482.316,385.968Z" transform="translate(-481.618 -384.514)" fill="#f6d2d4"/>
                    </g>
                  </g>
                  <g id="Group_5672" data-name="Group 5672" transform="translate(18.125 13.806)">
                    <path id="Path_485" data-name="Path 485" d="M490.118,393.208c-.1,1.212-1.506,2.319-3.145,2.469s-2.888-.71-2.788-1.922,1.506-2.319,3.145-2.47S490.217,392,490.118,393.208Z" transform="translate(-484.18 -391.267)" fill="#86294e"/>
                  </g>
                  <g id="Group_5673" data-name="Group 5673" transform="translate(12.945 21.075)">
                    <path id="Path_486" data-name="Path 486" d="M486.665,403.6a5.324,5.324,0,0,1-5.72,4.878c-3.049-.119-4.809-3.139-4.7-5.954A26.4,26.4,0,0,1,486.665,403.6Z" transform="translate(-476.242 -402.408)" fill="#86294e"/>
                    <path id="Path_487" data-name="Path 487" d="M481.974,405.363c-2.41-.279-3.9-1.106-4.038-2.916a26.224,26.224,0,0,1,8.793.976C486.319,405.055,484.336,405.636,481.974,405.363Z" transform="translate(-476.831 -402.406)" fill="#f6d2d4"/>
                  </g>
                </g>
                <g id="Group_5679" data-name="Group 5679" transform="translate(0 2.647)">
                  <g id="Group_5677" data-name="Group 5677" transform="translate(15.183 18.456)">
                    <g id="Group_5675" data-name="Group 5675">
                      <path id="Path_488" data-name="Path 488" d="M464.413,409.62h0l-5.992-.005a9.725,9.725,0,0,1-6.533-2.514l-3.751-3.383a.727.727,0,0,1,.974-1.08l3.751,3.384a8.269,8.269,0,0,0,5.558,2.14l5.992.005a.727.727,0,0,1,0,1.454Z" transform="translate(-447.898 -402.45)" fill="#201028"/>
                    </g>
                    <g id="Group_5676" data-name="Group 5676" transform="translate(12.632 4.985)">
                      <path id="Path_489" data-name="Path 489" d="M471.139,413h0l-2.428,0a1.455,1.455,0,0,1,0-2.91h0l2.429,0a1.455,1.455,0,0,1,0,2.909Z" transform="translate(-467.255 -410.089)" fill="#f6d2d4"/>
                    </g>
                  </g>
                  <g id="Group_5678" data-name="Group 5678">
                    <circle id="Ellipse_20" data-name="Ellipse 20" cx="12.183" cy="12.183" r="12.183" fill="#3e5aa7"/>
                    <ellipse id="Ellipse_21" data-name="Ellipse 21" cx="9.508" cy="10.4" rx="9.508" ry="10.4" transform="translate(1.294 1.348) rotate(2.252)" fill="#91a6cf"/>
                    <ellipse id="Ellipse_22" data-name="Ellipse 22" cx="3.268" cy="4.213" rx="3.268" ry="4.213" transform="translate(5.509 7.7) rotate(2.252)" fill="#e2ebed"/>
                  </g>
                </g>
              </g>
            </g>
          </g>
          <g id="Group_5683" data-name="Group 5683" transform="translate(33.953 76.872)">
            <path id="Path_490" data-name="Path 490" d="M448.372,579.424,390.1,581.066a17.605,17.605,0,0,1-16.9-18.283l3.681-97.521a12.121,12.121,0,0,1,8.432-11.072l43.445-13.833L463.484,457a12.12,12.12,0,0,1,6.872,11.406l-3.7,94.118A17.6,17.6,0,0,1,448.372,579.424Z" transform="translate(-373.185 -434.137)" fill="#92c6df"/>
            <path id="Path_491" data-name="Path 491" d="M510.388,483.34c.2,10.169.082,20.326-.084,30.48-.134,10.155-.5,20.3-.857,30.449-.432,10.144-.869,20.288-1.532,30.422a27.13,27.13,0,0,1-1.2,7.761A17.67,17.67,0,0,1,488.4,594.358a17.672,17.672,0,0,0,13.1-6.149,16.547,16.547,0,0,0,3.455-6.322,25.168,25.168,0,0,0,.716-7.284c.136-10.156.5-20.3.863-30.45.435-10.142.872-20.287,1.536-30.422C508.71,503.6,509.39,493.462,510.388,483.34Z" transform="translate(-413.217 -449.071)" fill="#6dacc7"/>
            <path id="Path_492" data-name="Path 492" d="M466.038,455.493l-31.451-2.028,1.206-18.7a4.216,4.216,0,0,1,4.479-3.936l23.035,1.485a4.217,4.217,0,0,1,3.937,4.479Z" transform="translate(-394.519 -430.825)" fill="#92c6df"/>
          </g>
          <g id="Group_5690" data-name="Group 5690" transform="translate(0 105.461)">
            <g id="Group_5684" data-name="Group 5684">
              <path id="Path_493" data-name="Path 493" d="M332.93,562.749h0a19.091,19.091,0,0,1-10.31-24.954l21.34-51.384A19.093,19.093,0,0,1,368.915,476.1h0a19.093,19.093,0,0,1,10.31,24.955L357.883,552.44A19.092,19.092,0,0,1,332.93,562.749Z" transform="translate(-321.155 -474.636)" fill="#92c6df"/>
              <path id="Path_494" data-name="Path 494" d="M388.471,476.88a18.775,18.775,0,0,1,8.82,6.2,19.723,19.723,0,0,1,4.014,10.311c.5,3.738-.7,7.722-2.072,10.939l-4.03,9.914c-2.768,6.577-5.54,13.152-8.52,19.639l-4.479,9.73c-1.592,3.2-3.09,6.441-4.763,9.61,1.064-3.42,2.3-6.77,3.446-10.156l3.729-10.042c2.493-6.69,5.2-13.295,7.9-19.9l4.178-9.854a27.729,27.729,0,0,0,1.808-4.795,18.592,18.592,0,0,0,.578-4.963A19.4,19.4,0,0,0,388.471,476.88Z" transform="translate(-340.711 -475.415)" fill="#6dacc7"/>
            </g>
            <g id="Group_5689" data-name="Group 5689" transform="translate(1.192 36.178)">
              <g id="Group_5687" data-name="Group 5687" transform="translate(83.524)">
                <g id="Group_5685" data-name="Group 5685" transform="translate(0 6.763)">
                  <path id="Path_495" data-name="Path 495" d="M466.893,558.683l-9.721-.628a6.63,6.63,0,0,1-6.182-7.035l.283-4.383a6.631,6.631,0,0,1,7.035-6.184l9.721.628Zm-8.868-13.873a2.261,2.261,0,0,0-2.4,2.108l-.283,4.383a2.262,2.262,0,0,0,2.108,2.4l5.367.346.574-8.891Z" transform="translate(-450.976 -540.44)" fill="#86294e"/>
                </g>
                <g id="Group_5686" data-name="Group 5686" transform="translate(8.295)">
                  <path id="Path_496" data-name="Path 496" d="M480.765,569.064l-8.409-.543a9.264,9.264,0,0,1-8.648-9.842l1.743-27.031c.194-3.015,27.093-1.281,26.9,1.735l-1.744,27.032A9.264,9.264,0,0,1,480.765,569.064Z" transform="translate(-463.688 -530.076)" fill="#d05e79"/>
                  <ellipse id="Ellipse_23" data-name="Ellipse 23" cx="11.05" cy="1.971" rx="11.05" ry="1.971" transform="translate(4.031 0.653) rotate(3.692)" fill="#86294e"/>
                </g>
              </g>
              <path id="Path_497" data-name="Path 497" d="M322.984,573.352h0a19.092,19.092,0,0,1,19.391-18.789l55.633.878A19.093,19.093,0,0,1,416.8,574.832h0A19.092,19.092,0,0,1,397.4,593.621l-55.632-.879A19.092,19.092,0,0,1,322.984,573.352Z" transform="translate(-322.981 -538.583)" fill="#92c6df"/>
              <path id="Path_498" data-name="Path 498" d="M352.7,554.1c7.144-.487,14.283-.656,21.421-.775,7.138-.153,14.273-.078,21.408,0l10.7.245c3.5.024,7.633.5,10.861,2.454a19.754,19.754,0,0,1,7.863,7.789,18.77,18.77,0,0,1,2.168,10.561,19.4,19.4,0,0,0-11.037-16.35,18.674,18.674,0,0,0-4.781-1.448,28.038,28.038,0,0,0-5.118-.25l-10.7-.093c-7.133-.149-14.267-.3-21.4-.677C366.955,555.21,359.825,554.818,352.7,554.1Z" transform="translate(-333.307 -538.124)" fill="#6dacc7"/>
              <g id="Group_5688" data-name="Group 5688" transform="translate(79.631 11.124)">
                <circle id="Ellipse_24" data-name="Ellipse 24" cx="16.728" cy="16.728" r="16.728" transform="translate(0 4.225)" fill="#f58283"/>
                <path id="Path_499" data-name="Path 499" d="M455.954,560.058h0a4,4,0,0,1-2.472-5.089l1.783-5.155a4,4,0,0,1,5.089-2.471h0a4,4,0,0,1,2.472,5.088l-1.783,5.154A4,4,0,0,1,455.954,560.058Z" transform="translate(-447.878 -547.122)" fill="#f58283"/>
                <path id="Path_500" data-name="Path 500" d="M496.136,565.856l-14.846,1.381a4.183,4.183,0,0,1-4.552-3.777h0a4.183,4.183,0,0,1,3.777-4.552l14.846-1.381a4.183,4.183,0,0,1,4.553,3.777h0A4.184,4.184,0,0,1,496.136,565.856Z" transform="translate(-456.028 -550.731)" fill="#f58283"/>
                <path id="Path_501" data-name="Path 501" d="M491.648,586.26,476.77,585.3a4.181,4.181,0,0,1-3.9-4.443h0a4.182,4.182,0,0,1,4.443-3.9l14.88.961a4.18,4.18,0,0,1,3.9,4.443h0A4.183,4.183,0,0,1,491.648,586.26Z" transform="translate(-454.686 -557.484)" fill="#f58283"/>
              </g>
            </g>
          </g>
        </g>
        <g id="Group_5702" data-name="Group 5702" transform="translate(279.68 287.207)">
          <g id="Group_5696" data-name="Group 5696" transform="translate(173.864)">
            <g id="Group_5692" data-name="Group 5692" transform="translate(11.862 17.12)">
              <path id="Path_502" data-name="Path 502" d="M732.587,502.756a1.744,1.744,0,0,1-1.232-2.977l16.657-16.66a1.743,1.743,0,0,1,2.465,2.467l-16.656,16.66A1.731,1.731,0,0,1,732.587,502.756Z" transform="translate(-730.843 -482.608)" fill="#2e6ed5"/>
            </g>
            <g id="Group_5695" data-name="Group 5695">
              <g id="Group_5693" data-name="Group 5693">
                <path id="Path_503" data-name="Path 503" d="M714.411,483.418a1.745,1.745,0,0,1-1.746-1.744V458.116a1.745,1.745,0,0,1,3.49,0v23.557A1.745,1.745,0,0,1,714.411,483.418Z" transform="translate(-712.665 -456.372)" fill="#2e6ed5"/>
              </g>
              <g id="Group_5694" data-name="Group 5694" transform="translate(22.082 45.641)">
                <path id="Path_504" data-name="Path 504" d="M771.808,529.8h-23.56a1.744,1.744,0,0,1,0-3.489h23.56a1.744,1.744,0,0,1,0,3.489Z" transform="translate(-746.504 -526.314)" fill="#2e6ed5"/>
              </g>
            </g>
          </g>
          <g id="Group_5701" data-name="Group 5701" transform="translate(0 44.599)">
            <g id="Group_5699" data-name="Group 5699">
              <path id="Path_505" data-name="Path 505" d="M460.749,640.081H604.892c4.02,0,5.26-3.258,5.26-7.281H453.466A7.28,7.28,0,0,0,460.749,640.081Z" transform="translate(-448.744 -562.27)" fill="#6dacc7"/>
              <path id="Path_506" data-name="Path 506" d="M449.873,632.8h51.094c0,4.022-3.7,7.281-8.268,7.281H449.656C444.946,640.012,445.162,632.8,449.873,632.8Z" transform="translate(-446.23 -562.27)" fill="#6dacc7"/>
              <g id="Group_5698" data-name="Group 5698" transform="translate(51.526)">
                <path id="Path_507" data-name="Path 507" d="M531.59,597.365h103.48a6.4,6.4,0,0,0,6.285-5.2l13.947-59.85a6.4,6.4,0,0,0-6.286-7.594H545.54a6.4,6.4,0,0,0-6.289,5.207L525.3,589.77A6.4,6.4,0,0,0,531.59,597.365Z" transform="translate(-525.19 -524.717)" fill="#e2ebed"/>
                <path id="Path_508" data-name="Path 508" d="M539.25,530.568a6.386,6.386,0,0,1,2.553-4,6.373,6.373,0,0,1,2.552,6.385L530.41,592.8a6.379,6.379,0,0,1-2.549,3.994,6.385,6.385,0,0,1-2.557-6.384Z" transform="translate(-525.19 -525.36)" fill="#6dacc7"/>
                <g id="Group_5697" data-name="Group 5697" transform="translate(55.869 31.353)">
                  <path id="Path_509" data-name="Path 509" d="M634.079,585.37h-16.97a6.3,6.3,0,0,1-6.3-6.3h0a6.3,6.3,0,0,1,6.3-6.3h16.97a6.3,6.3,0,0,1,6.3,6.3h0A6.3,6.3,0,0,1,634.079,585.37Z" transform="translate(-610.806 -572.764)" fill="#fff"/>
                </g>
              </g>
            </g>
            <g id="Group_5700" data-name="Group 5700" transform="translate(12.16 68.9)">
              <path id="Path_510" data-name="Path 510" d="M471.776,633.938h-5.092a1.818,1.818,0,0,1-1.819-1.818h0a1.819,1.819,0,0,1,1.819-1.818h5.092a1.819,1.819,0,0,1,1.818,1.818h0A1.818,1.818,0,0,1,471.776,633.938Z" transform="translate(-464.865 -630.302)" fill="#6dacc7"/>
              <path id="Path_511" data-name="Path 511" d="M487.008,633.938h-5.092a1.818,1.818,0,0,1-1.819-1.818h0a1.819,1.819,0,0,1,1.819-1.818h5.092a1.819,1.819,0,0,1,1.818,1.818h0A1.818,1.818,0,0,1,487.008,633.938Z" transform="translate(-470.157 -630.302)" fill="#6dacc7"/>
              <path id="Path_512" data-name="Path 512" d="M502.241,633.938H497.15a1.817,1.817,0,0,1-1.818-1.818h0a1.818,1.818,0,0,1,1.818-1.818h5.091a1.818,1.818,0,0,1,1.818,1.818h0A1.817,1.817,0,0,1,502.241,633.938Z" transform="translate(-475.451 -630.302)" fill="#6dacc7"/>
              <path id="Path_513" data-name="Path 513" d="M517.472,633.938h-5.091a1.817,1.817,0,0,1-1.818-1.818h0a1.818,1.818,0,0,1,1.818-1.818h5.091a1.818,1.818,0,0,1,1.819,1.818h0A1.817,1.817,0,0,1,517.472,633.938Z" transform="translate(-480.742 -630.302)" fill="#6dacc7"/>
            </g>
          </g>
        </g>
        <path id="Path_514" data-name="Path 514" d="M577.644,652.079H142.225a4.363,4.363,0,0,1-4.364-4.363h0a4.364,4.364,0,0,1,4.364-4.364H577.644a4.364,4.364,0,0,1,4.364,4.364h0A4.364,4.364,0,0,1,577.644,652.079Z" transform="translate(-59.409 -234.13)" fill="#1c2b67"/>
        <g id="Group_5709" data-name="Group 5709" transform="translate(122.862 335.386)">
          <g id="Group_5707" data-name="Group 5707">
            <path id="Path_515" data-name="Path 515" d="M239.633,586.264s-3.2-24.077-9.008-30" transform="translate(-214.502 -539.259)" fill="none" stroke="#1c2b67" stroke-linecap="round" stroke-miterlimit="10" stroke-width="0.827"/>
            <g id="Group_5705" data-name="Group 5705" transform="translate(3.908)">
              <path id="Path_516" data-name="Path 516" d="M228.207,532.887c1.55,5.13,1.235,9.766-.707,10.353s-4.772-3.1-6.322-8.229l-.046-.154c-1.314-4.572,5.59-6.656,7.027-2.123C228.177,532.784,228.192,532.835,228.207,532.887Z" transform="translate(-215.055 -530.204)" fill="#f6d2d4"/>
              <g id="Group_5703" data-name="Group 5703" transform="translate(0 6.91)">
                <path id="Path_517" data-name="Path 517" d="M240.627,548.032c-5.13,1.551-9.767,1.233-10.353-.707s3.1-4.772,8.229-6.322c.051-.016.1-.031.154-.046,4.57-1.314,6.657,5.59,2.123,7.028Z" transform="translate(-218.267 -540.793)" fill="#f6d2d4"/>
                <path id="Path_518" data-name="Path 518" d="M216.712,555.749c5.132-1.55,8.815-4.381,8.229-6.322s-5.221-2.258-10.352-.707c-.052.014-.1.03-.153.046-4.534,1.438-2.449,8.341,2.123,7.027Z" transform="translate(-211.906 -543.205)" fill="#f6d2d4"/>
              </g>
              <g id="Group_5704" data-name="Group 5704" transform="translate(6.186 14.086)">
                <path id="Path_519" data-name="Path 519" d="M228.644,563.421c1.442-5.162,1.029-9.79-.925-10.336s-4.706,3.2-6.148,8.36c-.014.052-.028.1-.042.155-1.217,4.6,5.728,6.539,7.07,1.975C228.615,563.524,228.63,563.473,228.644,563.421Z" transform="translate(-221.387 -552.221)" fill="#f6d2d4"/>
                <path id="Path_520" data-name="Path 520" d="M237.258,561.493c-4.06-3.5-6.277-7.582-4.954-9.118s5.688.057,9.748,3.556c.04.036.081.07.121.106,3.56,3.154-1.149,8.615-4.794,5.559Z" transform="translate(-225.047 -551.789)" fill="#f6d2d4"/>
              </g>
              <circle id="Ellipse_25" data-name="Ellipse 25" cx="2.51" cy="2.51" r="2.51" transform="translate(9.952 11.924)" fill="#d05e79"/>
            </g>
            <g id="Group_5706" data-name="Group 5706" transform="translate(0 22.692)">
              <path id="Path_521" data-name="Path 521" d="M221.585,575.884c6.667,5.253,10.46,11.555,8.473,14.076s-9,.309-15.669-4.944-8.473-14.076-8.473-14.076S214.918,570.632,221.585,575.884Z" transform="translate(-205.917 -567.048)" fill="#3e5aa7"/>
              <path id="Path_522" data-name="Path 522" d="M256.2,581.764c-7.036,6.608-14.767,9.807-17.267,7.146s1.178-10.177,8.215-16.786,17.267-7.146,17.267-7.146S263.233,575.155,256.2,581.764Z" transform="translate(-217.114 -564.978)" fill="#3e5aa7"/>
            </g>
          </g>
          <g id="Group_5708" data-name="Group 5708" transform="translate(4.014 42.982)">
            <path id="Path_523" data-name="Path 523" d="M243.474,630.159H220.45l-4.03-28.967H247.5Z" transform="translate(-213.58 -597.85)" fill="#1c2b67"/>
            <path id="Path_524" data-name="Path 524" d="M247.2,606.84H213.7a1.635,1.635,0,0,1-1.635-1.635v-7.5a1.635,1.635,0,0,1,1.635-1.636H247.2a1.635,1.635,0,0,1,1.635,1.636v7.5A1.635,1.635,0,0,1,247.2,606.84Z" transform="translate(-212.068 -596.071)" fill="#1c2b67"/>
          </g>
        </g>
        <g id="Group_5736" data-name="Group 5736" transform="translate(0 36.518)">
          <g id="Group_5713" data-name="Group 5713" transform="translate(0 21.907)">
            <g id="Group_5710" data-name="Group 5710" transform="translate(192.221 66.358)">
              <path id="Path_525" data-name="Path 525" d="M347.885,256.58,359.3,268.825l87.031-36.3Z" transform="translate(-324.602 -216.174)" fill="#2e6ed5"/>
              <path id="Path_526" data-name="Path 526" d="M339.547,207.468l-8.595,12.968,5.811,12.709-13.038,2.217L312.2,260.656l124.523-37.683Z" transform="translate(-312.205 -207.468)" fill="#2397e5"/>
              <path id="Path_527" data-name="Path 527" d="M346.745,240.05l-5.811-12.709,67.447,3.154Z" transform="translate(-322.187 -214.373)" fill="#2e6ed5"/>
            </g>
            <g id="Group_5711" data-name="Group 5711" transform="translate(98.565 112.003)">
              <path id="Path_528" data-name="Path 528" d="M280.342,383.125c-.957,0-1.917-.005-2.874-.016a1.744,1.744,0,0,1-1.725-1.765,1.706,1.706,0,0,1,1.764-1.724c4.521.05,9.007-.02,13.929-.228h.074a1.746,1.746,0,0,1,.074,3.49C287.642,383.046,283.963,383.125,280.342,383.125Zm-16.86-.688a1.525,1.525,0,0,1-.155-.005c-4.807-.412-9.537-1.029-14.057-1.832a1.746,1.746,0,0,1-1.413-2.026,1.774,1.774,0,0,1,2.026-1.411c4.415.786,9.041,1.389,13.745,1.793a1.745,1.745,0,0,1-.146,3.483ZM235.937,377.4a1.694,1.694,0,0,1-.511-.08,101.146,101.146,0,0,1-13.3-5.113,1.746,1.746,0,0,1,1.483-3.16,97.922,97.922,0,0,0,12.844,4.939,1.746,1.746,0,0,1-.512,3.415Zm-25.279-11.907a1.733,1.733,0,0,1-.966-.292,92.35,92.35,0,0,1-11.23-8.822,1.745,1.745,0,1,1,2.364-2.567,89.227,89.227,0,0,0,10.8,8.485,1.745,1.745,0,0,1-.972,3.2Zm-20.57-18.9a1.75,1.75,0,0,1-1.367-.656,93.1,93.1,0,0,1-8.011-11.828,1.746,1.746,0,0,1,3.035-1.727,89.551,89.551,0,0,0,7.71,11.379,1.75,1.75,0,0,1-.279,2.454A1.73,1.73,0,0,1,190.088,346.591Zm-13.824-24.279a1.748,1.748,0,0,1-1.633-1.131,85.635,85.635,0,0,1-3.924-13.756,1.746,1.746,0,0,1,3.427-.672,82.055,82.055,0,0,0,3.764,13.195,1.748,1.748,0,0,1-1.633,2.364Zm-5.57-27.388a1.744,1.744,0,0,1-1.738-1.633c-.183-2.852-.273-5.855-.273-8.921v-.707q.008-2.276.082-4.56a1.744,1.744,0,0,1,1.744-1.687h.056a1.746,1.746,0,0,1,1.688,1.8q-.073,2.234-.082,4.452v.7c0,2.995.09,5.921.266,8.7a1.741,1.741,0,0,1-1.63,1.853Z" transform="translate(-168.684 -277.415)" fill="#2e6ed5"/>
            </g>
            <g id="Group_5712" data-name="Group 5712">
              <path id="Path_529" data-name="Path 529" d="M132.892,207.613q-4,0-7.867-.1a1.745,1.745,0,0,1,.046-3.489h.046q6.76.17,13.944.037a1.653,1.653,0,0,1,1.78,1.711,1.743,1.743,0,0,1-1.711,1.779Q135.971,207.612,132.892,207.613Zm20.214-.585a1.744,1.744,0,0,1-.093-3.485c4.514-.256,9.2-.594,13.935-1.011a1.745,1.745,0,1,1,.307,3.477c-4.77.421-9.494.764-14.048,1.017C153.175,207.027,153.141,207.027,153.106,207.027Zm-42.039-.222c-.044,0-.091,0-.139,0-4.858-.378-9.585-.9-14.051-1.534a1.744,1.744,0,0,1-1.48-1.975,1.772,1.772,0,0,1,1.975-1.48c4.392.628,9.046,1.137,13.83,1.506a1.745,1.745,0,0,1-.134,3.485Zm69.981-2.23a1.744,1.744,0,0,1-.2-3.477q6.8-.8,13.865-1.8a1.745,1.745,0,1,1,.494,3.454q-7.114,1.015-13.956,1.813A1.54,1.54,0,0,1,181.048,204.576Zm-97.724-1.79a1.786,1.786,0,0,1-.384-.042c-3.376-.759-6.665-1.611-9.777-2.537q-1.985-.593-3.906-1.231a1.745,1.745,0,1,1,1.1-3.312q1.871.619,3.8,1.2c3.038.9,6.248,1.736,9.543,2.475a1.747,1.747,0,0,1-.378,3.452Zm-26.513-8.967a1.727,1.727,0,0,1-.762-.176,85.03,85.03,0,0,1-12.322-7.262,1.746,1.746,0,0,1,2.029-2.841A81.546,81.546,0,0,0,57.573,190.5a1.747,1.747,0,0,1-.761,3.318ZM116.9,192.26a1.744,1.744,0,0,1-1.744-1.744V189.9c0-4.4-.176-8.873-.525-13.294a1.746,1.746,0,1,1,3.482-.273c.352,4.509.532,9.074.532,13.567v.619A1.745,1.745,0,0,1,116.9,192.26Zm-82.655-14.8a1.741,1.741,0,0,1-1.29-.568,60.776,60.776,0,0,1-8.39-11.7,1.747,1.747,0,0,1,3.063-1.682,57.07,57.07,0,0,0,7.906,11.031,1.745,1.745,0,0,1-1.289,2.921Zm80.407-13.189a1.746,1.746,0,0,1-1.718-1.449,118.984,118.984,0,0,0-3.083-13.489,1.744,1.744,0,0,1,3.348-.983,122.727,122.727,0,0,1,3.179,13.881,1.749,1.749,0,0,1-1.426,2.017A1.793,1.793,0,0,1,114.653,164.269ZM20.861,153.118a1.746,1.746,0,0,1-1.682-1.281q-.323-1.177-.608-2.372a33.82,33.82,0,0,1-.932-7.736,29.758,29.758,0,0,1,.335-4.478,1.744,1.744,0,0,1,3.449.523,26.494,26.494,0,0,0-.3,3.955,30.309,30.309,0,0,0,.842,6.932c.178.756.369,1.506.573,2.244a1.742,1.742,0,0,1-1.216,2.148A1.778,1.778,0,0,1,20.861,153.118Zm85.7-15.654a1.746,1.746,0,0,1-1.573-.992,59.225,59.225,0,0,0-7.162-11.552,1.746,1.746,0,1,1,2.722-2.187,62.838,62.838,0,0,1,7.587,12.228,1.748,1.748,0,0,1-1.573,2.5ZM25.194,126.523a1.728,1.728,0,0,1-1.057-.356,1.747,1.747,0,0,1-.333-2.446,39.578,39.578,0,0,1,10.93-9.657,1.746,1.746,0,0,1,1.825,2.978,36.07,36.07,0,0,0-9.976,8.793A1.742,1.742,0,0,1,25.194,126.523Zm63.714-10.378a1.737,1.737,0,0,1-.955-.285,39.414,39.414,0,0,0-12.233-5.3,1.747,1.747,0,1,1,.835-3.392,43.006,43.006,0,0,1,13.313,5.767,1.745,1.745,0,0,1-.96,3.2ZM48.468,111.7a1.746,1.746,0,0,1-.494-3.42A65.8,65.8,0,0,1,61.7,105.795l.525-.017A1.858,1.858,0,0,1,64,107.488a1.742,1.742,0,0,1-1.71,1.779l-.38.014a62.158,62.158,0,0,0-12.947,2.341A1.8,1.8,0,0,1,48.468,111.7Z" transform="translate(-17.639 -105.778)" fill="#2e6ed5"/>
            </g>
          </g>
          <g id="Group_5723" data-name="Group 5723" transform="translate(351.941 39.709)">
            <g id="Group_5720" data-name="Group 5720" transform="translate(77.761)">
              <path id="Path_530" data-name="Path 530" d="M697.246,133.059h93.3a21.117,21.117,0,0,1,21.117,21.117V202.3a21.117,21.117,0,0,1-21.117,21.118H729.537l-21.945,19.362V223.417H697.246A21.118,21.118,0,0,1,676.129,202.3V154.176A21.117,21.117,0,0,1,697.246,133.059Z" transform="translate(-676.129 -133.059)" fill="url(#linear-gradient)"/>
              <g id="Group_5719" data-name="Group 5719" transform="translate(32.044 24.488)">
                <g id="Group_5714" data-name="Group 5714">
                  <path id="Path_531" data-name="Path 531" d="M727.88,175.879h66.157a2.647,2.647,0,0,0,0-5.294H727.88a2.647,2.647,0,0,0,0,5.294Z" transform="translate(-725.234 -170.585)" fill="#fff"/>
                </g>
                <g id="Group_5715" data-name="Group 5715" transform="translate(0 17.641)">
                  <path id="Path_532" data-name="Path 532" d="M727.88,202.913h66.157a2.647,2.647,0,0,0,0-5.294H727.88a2.647,2.647,0,0,0,0,5.294Z" transform="translate(-725.234 -197.619)" fill="#fff"/>
                </g>
                <g id="Group_5716" data-name="Group 5716" transform="translate(56.453 35.282)">
                  <path id="Path_533" data-name="Path 533" d="M814.392,229.947h9.7a2.647,2.647,0,0,0,0-5.295h-9.7a2.647,2.647,0,1,0,0,5.295Z" transform="translate(-811.745 -224.652)" fill="#fff"/>
                </g>
                <g id="Group_5717" data-name="Group 5717" transform="translate(34.401 35.282)">
                  <path id="Path_534" data-name="Path 534" d="M780.6,229.947h9.7a2.647,2.647,0,0,0,0-5.295h-9.7a2.647,2.647,0,0,0,0,5.295Z" transform="translate(-777.952 -224.652)" fill="#fff"/>
                </g>
                <g id="Group_5718" data-name="Group 5718" transform="translate(0 35.282)">
                  <path id="Path_535" data-name="Path 535" d="M727.88,229.947h22.052a2.647,2.647,0,1,0,0-5.295H727.88a2.647,2.647,0,0,0,0,5.295Z" transform="translate(-725.234 -224.652)" fill="#fff"/>
                </g>
              </g>
            </g>
            <g id="Group_5722" data-name="Group 5722" transform="translate(0 96.101)">
              <path id="Path_536" data-name="Path 536" d="M644.042,280.328h-71.42a12.717,12.717,0,0,0-12.717,12.717V334.23A12.708,12.708,0,0,0,571.692,346.9l-14.727,24.133,38.813-24.085h48.265A12.718,12.718,0,0,0,656.76,334.23V293.045A12.719,12.719,0,0,0,644.042,280.328Z" transform="translate(-556.965 -280.328)" fill="url(#linear-gradient)"/>
              <g id="Group_5721" data-name="Group 5721" transform="translate(31.381 14.861)">
                <circle id="Ellipse_26" data-name="Ellipse 26" cx="8.456" cy="8.456" r="8.456" transform="translate(11.53)" fill="#fff"/>
                <path id="Path_537" data-name="Path 537" d="M645.027,352.823H605.055a12.811,12.811,0,0,1,12.812-12.81h14.348a12.812,12.812,0,0,1,12.812,12.81Z" transform="translate(-605.055 -315.926)" fill="#fff"/>
              </g>
            </g>
          </g>
          <g id="Group_5735" data-name="Group 5735" transform="translate(318.321)">
            <g id="Group_5726" data-name="Group 5726">
              <g id="Group_5724" data-name="Group 5724">
                <path id="Path_538" data-name="Path 538" d="M539.933,141.04a35.015,35.015,0,0,1-7.037-.716,1.747,1.747,0,0,1-1.358-2.063A1.773,1.773,0,0,1,533.6,136.9a31.566,31.566,0,0,0,10.958.3,1.747,1.747,0,1,1,.516,3.455A35.062,35.062,0,0,1,539.933,141.04Zm15.845-4.077a1.747,1.747,0,0,1-.85-3.276,31.008,31.008,0,0,0,8.5-6.915,1.744,1.744,0,1,1,2.642,2.279,34.578,34.578,0,0,1-9.451,7.694A1.755,1.755,0,0,1,555.778,136.963Zm-33.27-.938a1.727,1.727,0,0,1-.925-.268,34.591,34.591,0,0,1-9.012-8.2,1.747,1.747,0,0,1,2.767-2.131,31.165,31.165,0,0,0,8.1,7.381,1.745,1.745,0,0,1-.932,3.222Zm48.132-16.333a1.767,1.767,0,0,1-.608-.111A1.744,1.744,0,0,1,569,117.337a30.9,30.9,0,0,0,1.929-10.785,1.745,1.745,0,0,1,3.489,0,34.364,34.364,0,0,1-2.146,12A1.751,1.751,0,0,1,570.64,119.692Zm-62-1.733a1.744,1.744,0,0,1-1.667-1.233,34.593,34.593,0,0,1-1.526-10.171c0-.651.017-1.293.055-1.932a1.783,1.783,0,0,1,1.84-1.642,1.742,1.742,0,0,1,1.642,1.841c-.031.571-.048,1.15-.048,1.73a31.2,31.2,0,0,0,1.372,9.146,1.745,1.745,0,0,1-1.154,2.182A1.7,1.7,0,0,1,508.638,117.959ZM571.716,100.4a1.746,1.746,0,0,1-1.693-1.327,30.756,30.756,0,0,0-4.484-10,1.745,1.745,0,0,1,2.881-1.971,34.174,34.174,0,0,1,4.99,11.125,1.743,1.743,0,0,1-1.273,2.114A1.719,1.719,0,0,1,571.716,100.4Zm-61.8-5.194a1.75,1.75,0,0,1-1.6-2.446A34.26,34.26,0,0,1,515.09,82.63a1.744,1.744,0,1,1,2.512,2.42,30.828,30.828,0,0,0-6.091,9.109A1.744,1.744,0,0,1,509.912,95.208Zm48.952-13.629a1.732,1.732,0,0,1-1.01-.321,30.717,30.717,0,0,0-9.909-4.659,1.746,1.746,0,1,1,.9-3.375,34.2,34.2,0,0,1,11.034,5.188,1.745,1.745,0,0,1-1.013,3.168ZM525.713,78.8a1.746,1.746,0,0,1-.758-3.318A34.228,34.228,0,0,1,536.7,72.215a1.767,1.767,0,0,1,1.9,1.577,1.747,1.747,0,0,1-1.577,1.9,30.821,30.821,0,0,0-10.552,2.929A1.735,1.735,0,0,1,525.713,78.8Z" transform="translate(-505.445 -72.208)" fill="#2e6ed5"/>
              </g>
              <g id="Group_5725" data-name="Group 5725" transform="translate(11.608 17.765)">
                <path id="Path_539" data-name="Path 539" d="M546.114,99.432c-12.637,0-22.881,6.772-22.881,15.127v.043c.01,2.181,1.73,3.676,3.339,2.989l6.005-2.563c1.445-.617,2.147-2.721,1.5-4.494l-.739-2.014a90.641,90.641,0,0,0,25.469,0l-.745,2.585a3.643,3.643,0,0,0,1.39,4.143l5.94,3.243c1.445.788,3.132-.27,3.463-2.243a10.1,10.1,0,0,0,.142-1.689C568.994,106.2,558.75,99.432,546.114,99.432Z" transform="translate(-523.233 -99.432)" fill="#2e6ed5"/>
                <path id="Path_540" data-name="Path 540" d="M565.7,139.939H533.984l4.7-14.723a6.658,6.658,0,0,1,6.344-4.634h9.628A6.662,6.662,0,0,1,561,125.216Z" transform="translate(-526.968 -106.78)" fill="#2e6ed5"/>
              </g>
            </g>
            <g id="Group_5734" data-name="Group 5734" transform="translate(204.392 179.339)">
              <g id="Group_5727" data-name="Group 5727">
                <path id="Path_541" data-name="Path 541" d="M853.153,415.865a34.757,34.757,0,0,1-7.047-.719,1.751,1.751,0,0,1-1.355-2.065,1.77,1.77,0,0,1,2.066-1.356,31.353,31.353,0,0,0,10.956.3,1.747,1.747,0,0,1,.517,3.455A35.374,35.374,0,0,1,853.153,415.865ZM869,411.791a1.747,1.747,0,0,1-.851-3.274,31.141,31.141,0,0,0,8.5-6.918,1.744,1.744,0,1,1,2.641,2.278,34.566,34.566,0,0,1-9.45,7.691A1.735,1.735,0,0,1,869,411.791Zm-33.267-.94a1.731,1.731,0,0,1-.927-.268,34.641,34.641,0,0,1-9.009-8.205,1.746,1.746,0,1,1,2.767-2.131,31.087,31.087,0,0,0,8.1,7.381,1.745,1.745,0,0,1-.93,3.222Zm48.126-16.331a1.777,1.777,0,0,1-.608-.111,1.746,1.746,0,0,1-1.028-2.243,30.871,30.871,0,0,0,1.929-10.785,1.745,1.745,0,0,1,3.489,0,34.38,34.38,0,0,1-2.144,12A1.746,1.746,0,0,1,883.855,394.52Zm-62-1.739a1.747,1.747,0,0,1-1.668-1.232,34.485,34.485,0,0,1-1.522-10.168q0-.972.054-1.93a1.828,1.828,0,0,1,1.838-1.645,1.743,1.743,0,0,1,1.644,1.838c-.031.578-.048,1.157-.048,1.737a30.969,30.969,0,0,0,1.37,9.139,1.744,1.744,0,0,1-1.153,2.181A1.69,1.69,0,0,1,821.852,392.781Zm63.086-17.551a1.746,1.746,0,0,1-1.692-1.327,30.829,30.829,0,0,0-4.485-9.993,1.746,1.746,0,0,1,2.882-1.971,34.238,34.238,0,0,1,4.989,11.123,1.746,1.746,0,0,1-1.274,2.114A1.689,1.689,0,0,1,884.938,375.23Zm-61.807-5.2a1.747,1.747,0,0,1-1.6-2.446,34.368,34.368,0,0,1,6.782-10.131,1.743,1.743,0,1,1,2.509,2.42,31.025,31.025,0,0,0-6.094,9.108A1.748,1.748,0,0,1,823.131,370.033Zm48.955-13.62a1.729,1.729,0,0,1-1.009-.321,30.662,30.662,0,0,0-9.91-4.663,1.746,1.746,0,1,1,.9-3.375,34.277,34.277,0,0,1,11.033,5.191,1.745,1.745,0,0,1-1.013,3.168Zm-33.149-2.793a1.746,1.746,0,0,1-.759-3.318,34.186,34.186,0,0,1,11.747-3.261,1.746,1.746,0,1,1,.324,3.477,30.753,30.753,0,0,0-10.555,2.926A1.7,1.7,0,0,1,838.937,353.62Z" transform="translate(-818.662 -347.033)" fill="#2e6ed5"/>
              </g>
              <g id="Group_5733" data-name="Group 5733" transform="translate(13.919 19.687)">
                <rect id="Rectangle_112" data-name="Rectangle 112" width="40.592" height="23.018" transform="translate(0.001 8.449)" fill="#91a6cf"/>
                <g id="Group_5732" data-name="Group 5732" transform="translate(7.426)">
                  <g id="Group_5728" data-name="Group 5728">
                    <path id="Path_542" data-name="Path 542" d="M893.668,383.854v-2.816a3.756,3.756,0,0,1,3.754-3.755h0a3.755,3.755,0,0,1,3.754,3.755v4.67h-7.508" transform="translate(-866.068 -377.229)" fill="#2e6ed5"/>
                    <path id="Path_543" data-name="Path 543" d="M879.046,380.955v23.924H851.372V380.955a3.755,3.755,0,0,1,3.754-3.754h27.362l-.759.158A3.755,3.755,0,0,0,879.046,380.955Z" transform="translate(-851.372 -377.201)" fill="#e2ebed"/>
                  </g>
                  <g id="Group_5731" data-name="Group 5731" transform="translate(1.721 3.859)">
                    <rect id="Rectangle_113" data-name="Rectangle 113" width="6.135" height="6.3" transform="translate(0 0.036)" fill="#2e6ed5"/>
                    <g id="Group_5730" data-name="Group 5730">
                      <g id="Group_5729" data-name="Group 5729" transform="translate(8.017)">
                        <line id="Line_4" data-name="Line 4" x2="15.599" stroke-width="0.658" stroke="#2e6ed5" stroke-linecap="round" stroke-linejoin="round" stroke-miterlimit="10" fill="none"/>
                        <line id="Line_5" data-name="Line 5" x2="15.599" transform="translate(0 2.122)" fill="none" stroke="#2e6ed5" stroke-linecap="round" stroke-linejoin="round" stroke-miterlimit="10" stroke-width="0.658"/>
                        <line id="Line_6" data-name="Line 6" x2="15.599" transform="translate(0 4.244)" fill="none" stroke="#2e6ed5" stroke-linecap="round" stroke-linejoin="round" stroke-miterlimit="10" stroke-width="0.658"/>
                        <line id="Line_7" data-name="Line 7" x2="15.601" transform="translate(0.146 6.365)" fill="none" stroke="#2e6ed5" stroke-linecap="round" stroke-linejoin="round" stroke-miterlimit="10" stroke-width="0.658"/>
                      </g>
                      <line id="Line_8" data-name="Line 8" x2="23.615" transform="translate(0 8.458)" fill="none" stroke="#2e6ed5" stroke-linecap="round" stroke-linejoin="round" stroke-miterlimit="10" stroke-width="0.658"/>
                      <line id="Line_9" data-name="Line 9" x2="23.615" transform="translate(0 10.579)" fill="none" stroke="#2e6ed5" stroke-linecap="round" stroke-linejoin="round" stroke-miterlimit="10" stroke-width="0.658"/>
                      <line id="Line_10" data-name="Line 10" x2="23.615" transform="translate(0 12.653)" fill="none" stroke="#2e6ed5" stroke-linecap="round" stroke-linejoin="round" stroke-miterlimit="10" stroke-width="0.658"/>
                      <line id="Line_11" data-name="Line 11" x2="11.477" transform="translate(0 14.775)" fill="none" stroke="#2e6ed5" stroke-linecap="round" stroke-linejoin="round" stroke-miterlimit="10" stroke-width="0.658"/>
                    </g>
                  </g>
                </g>
                <path id="Path_544" data-name="Path 544" d="M870.613,413.167h-30.62V390.149Z" transform="translate(-839.992 -381.7)" fill="#2e6ed5"/>
                <path id="Path_545" data-name="Path 545" d="M855.275,413.167h30.619V390.149Z" transform="translate(-845.302 -381.7)" fill="#2e6ed5"/>
                <path id="Path_546" data-name="Path 546" d="M880.584,419.9H839.992l18.231-9.736a3.623,3.623,0,0,1,4.13,0Z" transform="translate(-839.992 -388.428)" fill="#2e6ed5"/>
              </g>
            </g>
          </g>
        </g>
      </g>
    </g>
  </g>
</svg>
